<svg width="392" height="161" viewBox="0 0 392 161" fill="none" xmlns="http://www.w3.org/2000/svg">
<path d="M390.622 159.569H2.27905V2.36536H390.678V159.569H390.622Z" fill="#0058A3"/>
<path d="M9.84814 80.9676C9.84814 118.965 88.0511 150.528 196.478 150.528C304.904 150.528 383.052 118.965 383.052 80.9676C383.052 42.9703 304.849 11.4076 196.478 11.4076C88.1068 11.4076 9.84814 42.9703 9.84814 80.9676Z" fill="#FFDB00"/>
<path d="M133.583 50.7355C132.748 52.3996 132.748 54.0082 132.748 55.6723V76.4738C132.748 76.4738 143.935 61.996 146.496 58.5568C148.444 56.0051 150.837 52.3996 150.837 50.7355H187.351C184.846 52.3996 182.063 55.395 179.781 58.1685C177.777 60.6092 166.422 74.4214 166.422 74.4214C166.422 74.4214 183.287 99.9932 185.458 103.266C186.683 105.041 188.019 106.705 189.577 108.203H147.553C147.553 106.539 145.939 103.155 144.158 100.492C142.377 97.8299 132.748 83.2411 132.748 83.2411V103.266C132.748 104.93 132.748 106.539 133.583 108.203H98.5722C99.4071 106.539 99.4071 104.93 99.4071 103.266V55.6723C99.4071 54.0082 99.4071 52.3996 98.5722 50.7355H133.583ZM263.216 50.7355H195.644C196.479 52.3996 196.479 54.0082 196.479 55.6723V103.266C196.479 104.93 196.479 106.539 195.644 108.203H263.216V92.2828C261.546 93.1149 259.932 93.1149 258.262 93.1149H229.82V85.5709H257.149V73.4229H229.82V65.8234H258.262C259.932 65.8234 261.546 65.8234 263.216 66.6V50.7355ZM356.837 103.266C357.393 105.097 358.34 106.761 359.564 108.203H322.94C323.107 106.539 322.494 104.93 321.826 103.266C321.826 103.266 321.27 101.935 320.491 99.9932L320.157 99.1612H299.061L298.727 100.049C298.727 100.049 298.115 101.657 297.558 103.321C297.002 104.986 296.39 106.594 296.612 108.258H267.724C268.893 106.816 269.784 105.152 270.34 103.321L287.651 55.7278C288.263 54.0637 288.875 52.455 288.653 50.7909H337.467C337.022 52.455 337.912 54.0637 338.525 55.7278C339.972 59.3334 355.612 100.049 356.837 103.266ZM315.537 87.0132L310.416 73.7002C309.971 72.4799 309.581 71.2041 309.303 69.9282C309.08 71.2041 308.746 72.4799 308.301 73.7002C308.134 74.2549 305.963 80.0793 303.458 87.0132H315.537ZM81.1504 55.6723C81.1504 54.0082 81.1504 52.3996 81.9853 50.7355H43.9136C44.7485 52.3996 44.7485 54.0082 44.7485 55.6723V103.266C44.7485 104.93 44.7485 106.539 43.9136 108.203H81.9853C81.1504 106.539 81.1504 104.93 81.1504 103.266V55.6723ZM345.148 55.284C345.037 59.4443 348.321 62.939 352.551 63.0499C356.726 63.1608 360.232 59.8881 360.343 55.6723C360.343 55.5614 360.343 55.395 360.343 55.284C360.399 51.1792 357.171 47.7955 353.052 47.74C352.941 47.74 352.885 47.74 352.774 47.74C348.71 47.5736 345.315 50.7355 345.204 54.7848C345.092 54.9512 345.093 55.1176 345.148 55.284H345.148ZM358.785 55.284C358.896 58.6123 356.225 61.4413 352.885 61.4967C349.545 61.6076 346.707 58.9451 346.651 55.6169C346.651 55.506 346.651 55.395 346.651 55.2286C346.54 52.0113 349.044 49.2932 352.273 49.1823C352.44 49.1823 352.551 49.1823 352.718 49.1823C356.002 49.1267 358.729 51.7339 358.785 55.0067C358.785 55.1176 358.785 55.2286 358.785 55.284ZM356.447 59.8326H354.944L353.163 56.6153H351.215V59.8326H349.879V50.7355H353.275C354.889 50.791 356.113 52.0667 356.113 53.6754C356.113 54.7848 355.501 55.7833 354.499 56.338L356.447 59.8326ZM353.052 55.284C353.942 55.3396 354.722 54.6739 354.722 53.7863C354.722 52.8988 354.109 52.1222 353.219 52.1222C353.163 52.1222 353.108 52.1222 353.052 52.1222H351.215V55.3395H353.052" fill="#0058A3"/>
</svg>
